<?xml version="1.0" encoding="utf-8"?>
<!-- Generator: Adobe Illustrator 26.0.1, SVG Export Plug-In . SVG Version: 6.00 Build 0)  -->
<svg version="1.1" id="Layer_1" xmlns="http://www.w3.org/2000/svg" xmlns:xlink="http://www.w3.org/1999/xlink" x="0px" y="0px"
	 viewBox="0 0 219 221" style="enable-background:new 0 0 219 221;" xml:space="preserve">
<style type="text/css">
	.st0{fill:#F4DD5B;}
	.st1{fill:#EAC454;}
	.st2{fill:#F8EE96;}
</style>
<g>
	<path class="st0" d="M174.5,124.5c0,49.37-32.97,75.38-65,75.38s-65-26.02-65-75.38s32.97-103.38,65-103.38
		S174.5,75.13,174.5,124.5z"/>
	<path class="st1" d="M117.5,182.11c-33.19,0-67.35-26.96-67.35-78.11c0-7.72,0.78-15.56,2.22-23.29
		c-4.95,13.97-7.87,29.09-7.87,43.78c0,49.37,32.97,75.38,65,75.38c24.55,0,49.64-15.31,60.02-44.68
		C156.47,172.95,136.83,182.11,117.5,182.11z"/>
	
		<ellipse transform="matrix(0.9413 -0.3377 0.3377 0.9413 -15.7751 47.233)" class="st2" cx="127.88" cy="68.96" rx="21.47" ry="38.62"/>
</g>
</svg>
